# xmcd CD database file
#
# Track frame offsets:
#	150
#	14125
#	50862
#	67922
#	92345
#	104045
#	116232
#	129717
#	151507
#	165672
#	178347
#	198210
#
# Disc length: 3065 seconds
#
# Revision: 0
# Processed by: cddbd v1.5.1PL0 Copyright (c) Steve Scherf et al.
# Submitted via: CDex 1.51
#
DISCID=a70bf70c
DTITLE=Blasphobie - Der Anfang vom Ende
DYEAR=2000
DGENRE=Jazz
TTITLE0=Peter Gunn Theme
TTITLE1=Beauty And The Beast
TTITLE2=A Whiter Shade Of Pale
TTITLE3=Dieter Thomas Kuhn Medley
TTITLE4=Midnight Serenade
TTITLE5=Rough Mix
TTITLE6=I Will Follow Him
TTITLE7=Deep Purple Medley
TTITLE8=One Moment In Time
TTITLE9=Everybody Needs Somebody
TTITLE10=Backdraft
TTITLE11=La Storia
EXTD=YEAR: 2000
EXTT0=
EXTT1=
EXTT2=
EXTT3=
EXTT4=
EXTT5=
EXTT6=
EXTT7=
EXTT8=
EXTT9=
EXTT10=
EXTT11=
PLAYORDER=
